<?xml version="1.0" encoding="UTF-8"?>
<svg id="Capa_2" data-name="Capa 2" xmlns="http://www.w3.org/2000/svg" viewBox="0 0 5669.29 5067.15">
  <defs>
    <style>
      .cls-1 {
        fill: #fff;
      }
    </style>
  </defs>
  <g id="Capa_1-2" data-name="Capa 1">
    <g>
      <g>
        <path class="cls-1" d="M3391.5,1034.41l659.31-313.26c67.59-32.11,146.03,15.18,149.17,89.95l33.31,792.58c2.46,58.62-62.81,95.11-111.46,62.31l-740.26-499.22c-49.05-33.08-43.51-106.96,9.93-132.35Z"/>
        <path class="cls-1" d="M2959.93,20.2l748.5,564.29c42.05,31.7,36.1,96.55-11.01,120.07l-742.22,370.56c-57.55,28.73-125.49-11.89-127.41-76.19l-26.83-896.51c-2.49-83.25,92.47-132.37,158.98-82.23Z"/>
        <path class="cls-1" d="M2618.95,1318.55l34.08-1031.8c2.8-84.7-89.18-138.99-161.98-95.6l-862.27,513.94c-94.37,56.25-90.68,194.13,6.55,245.26l849.11,446.44c59.97,31.53,132.26-10.52,134.5-78.24Z"/>
        <path class="cls-1" d="M1562.57,1099.52l759.01,525.88c80.44,55.73,75.6,176.19-9.04,225.29l-760.13,441c-52.16,30.26-117.39-7.97-116.47-68.26l16.19-1067.14c.85-56.29,64.17-88.83,110.44-56.78Z"/>
        <path class="cls-1" d="M1918.91,2244.76l548.81-314.02c54.18-31,121.64,8.12,121.64,70.54v480.75c0,104-110.67,170.63-202.58,121.97l-466.01-246.71c-44.73-23.68-45.78-87.39-1.85-112.53Z"/>
        <path class="cls-1" d="M3223.9,2530.75l553.52-399.12c39.37-28.39,93.02,6.7,82.79,54.15l-63.4,293.98c-23.94,111.01-126.83,186.8-239.95,176.74l-305.89-27.2c-50.3-4.47-68.03-69.02-27.06-98.55Z"/>
        <path class="cls-1" d="M3182.91,2148.94l634.79-344.72c48.32-26.24,50.1-94.95,3.21-123.66l-677.99-415.19c-48.48-29.69-111.04,3.51-113.62,60.3l-32.14,706.98c-4.45,97.85,99.68,163.04,185.75,116.29Z"/>
        <path class="cls-1" d="M3132.29,3610.81c11.46,3.2,22.79,6.56,34.02,10.09,13.01,4.08,25.13-8.28,20.8-21.21l-189.54-566.59c-24.11-72.07-36.82-147.46-37.67-223.45l-1.97-176.16c-.42-37.74,17.18-73.42,47.39-96.05l483.46-362.16c7.03-5.27,9.66-15.17,5.05-22.65-4.81-7.82-14.49-10.21-22.14-6.24l-394.94,204.78c-80.09,41.53-175.33-18.23-172.78-108.41l26.73-1005.61c.34-11.89-5.01-23.23-14.39-30.55l-59.68-46.5c-24.55-19.13-60.36-1.64-60.36,29.49l-1.49,406.39c0,52.91-57.42,85.85-103.09,59.15l-296.54-173.35c-10.07-5.89-23.07-2.36-27.4,8.47-3.18,7.97-.64,16.58,5.6,21.56l255.64,204.4c64.59,51.65,102.12,129.91,101.96,212.61l-2.34,1192.59c-.23,118.45-29.28,235.06-84.63,339.78l-65.45,123.81c-7.03,13.3,5.75,28.55,19.97,23.65,144.87-49.84,335.67-53.14,533.81,2.14Z"/>
      </g>
      <g>
        <path class="cls-1" d="M569.84,4329.96c0,179.52-123.52,291.52-293.15,291.52h-70.82v266.79c0,37.89-24.7,62.58-62.58,62.58H62.58c-37.88,0-62.58-24.69-62.58-62.58v-945.33c0-37.88,24.7-62.58,62.58-62.58h214.1c169.63,0,293.15,111.98,293.15,291.49v158.1ZM363.96,4329.96v-158.1c0-47.76-31.28-85.63-87.28-85.63h-70.82v329.38h70.82c56,0,87.28-37.88,87.28-85.65Z"/>
        <path class="cls-1" d="M1150.64,4697.23c0,37.89-24.7,62.58-62.58,62.58h-335.98c-37.88,0-62.58-24.69-62.58-62.58v-945.33c0-37.88,24.7-62.58,62.58-62.58h80.7c37.88,0,62.58,24.7,62.58,62.58v802.05h192.7c37.88,0,62.58,24.7,62.58,62.58v80.7Z"/>
        <path class="cls-1" d="M1428.67,3687.04c6.59-31.3,29.65-51.05,60.93-51.05h192.7c31.3,0,54.35,19.76,60.93,51.05l186.1,945.33c8.23,44.47-14.82,74.11-60.93,74.11h-84c-31.3,0-56-21.4-60.93-52.7l-32.94-186.09h-210.81l-31.28,186.09c-4.95,31.3-29.65,52.7-60.94,52.7h-83.98c-46.12,0-69.17-29.63-60.94-74.11l186.1-945.33ZM1515.95,4270.04h138.35l-69.17-387.02-69.17,387.02Z"/>
        <path class="cls-1" d="M2333.87,3911.65c8.23-29.65,31.28-47.76,60.93-47.76h88.93c51.07,0,74.12,32.93,59.3,80.7l-220.68,701.58v225.63c0,37.88-24.7,62.59-62.59,62.59h-80.7c-37.88,0-62.58-24.72-62.58-62.59v-225.63l-220.68-701.58c-14.82-47.77,8.23-80.7,59.3-80.7h87.28c29.65,0,52.7,18.11,60.93,47.76l115.29,447.96,115.28-447.96Z"/>
        <path class="cls-1" d="M2974.73,4472.88h-70.82v266.79c0,37.89-24.7,62.58-62.58,62.58h-80.7c-37.88,0-62.58-24.69-62.58-62.58v-945.33c0-37.88,24.7-62.58,62.58-62.58h214.1c169.63,0,293.15,111.98,293.15,291.49v158.1c0,108.7-46.12,192.7-118.58,242.1l19.76,21.4c6.59,6.59,16.47,28.01,18.12,36.24l60.93,243.75c11.53,46.11-11.53,77.39-60.93,77.39h-84c-29.63,0-54.35-19.76-60.93-47.76l-67.53-281.61ZM2974.73,4267.01c56,0,87.28-37.88,87.28-85.65v-158.1c0-47.76-31.28-85.63-87.28-85.63h-70.82v329.38h70.82Z"/>
        <path class="cls-1" d="M3693.35,5067.15c-169.63,0-293.14-111.98-293.14-293.15v-517.12c0-182.81,123.51-291.51,293.14-291.51s291.51,108.7,291.51,291.51v517.12c0,182.82-121.88,293.15-291.51,293.15ZM3778.99,4256.87c0-47.77-31.3-85.65-87.29-85.65s-85.63,39.54-85.63,85.65v517.12c0,47.77,29.65,87.29,85.63,87.29s87.29-36.23,87.29-87.29v-517.12Z"/>
        <path class="cls-1" d="M4418.91,4817.9c-169.63,0-293.14-111.98-293.14-293.15v-517.12c0-182.81,123.51-291.51,293.14-291.51s291.51,108.7,291.51,291.51v517.12c0,182.82-121.88,293.15-291.51,293.15ZM4504.56,4007.62c0-47.77-31.3-85.65-87.29-85.65s-85.63,39.54-85.63,85.65v517.12c0,47.77,29.65,87.29,85.63,87.29s87.29-36.23,87.29-87.29v-517.12Z"/>
        <path class="cls-1" d="M5043.46,4778.95v225.62c0,37.89-24.7,62.58-62.58,62.58h-80.7c-37.88,0-62.58-24.69-62.58-62.58v-945.33c0-37.88,24.7-62.58,62.58-62.58h141.64c29.63,0,54.34,19.76,60.93,47.76l149.87,609.36,151.51-609.36c6.59-28,31.3-47.76,60.93-47.76h141.64c37.88,0,62.58,24.7,62.58,62.58v945.33c0,37.89-24.7,62.58-62.58,62.58h-80.7c-37.88,0-62.58-24.69-62.58-62.58v-225.62l32.93-385.39-149.87,625.83c-6.58,28-31.28,47.76-60.93,47.76h-64.23c-29.65,0-54.35-19.76-60.94-47.76l-149.86-625.83,32.93,385.39Z"/>
      </g>
    </g>
  </g>
</svg>