<?xml version="1.0" encoding="UTF-8"?>
<svg id="Capa_2" data-name="Capa 2" xmlns="http://www.w3.org/2000/svg" viewBox="0 0 392.48 109.48">
  <defs>
    <style>
      .cls-1 {
        fill: #606060;
      }
    </style>
  </defs>
  <g id="Capa_1-2" data-name="Capa 1">
    <g>
      <polygon class="cls-1" points="163.66 0 169.27 15.82 174.28 7.59 163.66 0"/>
      <path class="cls-1" d="M201.83,19.67c24.51,1.54,46.37,6.18,63.24,12.67h0c-13.3-8.77-35.54-15.13-61.82-17.23l-1.42,4.56ZM103.34,32.34h0c16.96-6.53,38.97-11.18,63.54-12.7l-1.59-4.55c-26.22,2.08-48.44,8.45-61.94,17.25M168.95,14.82l1.61,4.62c4.44-.21,8.96-.32,13.55-.32s9.46.12,14.08.35l1.44-4.62c-5.05-.33-10.23-.49-15.52-.49s-10.23.16-15.16.47"/>
      <polygon class="cls-1" points="194.19 7.63 199.18 16.12 204.82 .04 194.19 7.63"/>
      <polygon class="cls-1" points="181.03 3.15 184.15 6.29 187.29 3.15 184.15 .02 181.03 3.15"/>
      <polygon class="cls-1" points="176.64 7.61 179.76 10.74 182.9 7.61 179.76 4.48 176.64 7.61"/>
      <polygon class="cls-1" points="185.55 7.61 188.69 10.74 191.82 7.61 188.69 4.48 185.55 7.61"/>
      <path class="cls-1" d="M384.36,64.69c-4.51,0-8.15-3.63-8.15-8.12s3.64-8.12,8.12-8.12,8.14,3.63,8.14,8.12-3.63,8.12-8.12,8.12M384.36,49.59c-3.86,0-6.99,3.13-6.99,6.97s3.15,6.97,6.97,6.97,6.99-3.11,6.99-6.97-3.11-6.97-6.97-6.97M387.84,56.67c-.41.27-.77.38-1.19.44l2.21,3.51h-1.4l-2.17-3.47h-3.42v3.47h-1.24v-8.6h5.25c.79,0,1.2.04,1.77.36.77.41,1.23,1.4,1.23,2.21,0,.73-.39,1.63-1.05,2.09M387.07,53.41c-.29-.18-.56-.23-1.4-.23h-3.8v2.82h4.01c.73,0,1-.11,1.23-.25.38-.27.57-.73.57-1.21s-.21-.88-.61-1.13"/>
      <path class="cls-1" d="M16.46,48.16c1.08,0,2.12.15,3.13.46,1.01.31,1.91.78,2.69,1.42.78.64,1.42,1.46,1.91,2.44.49.99.73,2.16.73,3.52,0,.8-.08,1.5-.25,2.1-.17.6-.38,1.13-.63,1.6-.26.46-.54.86-.84,1.21-.31.35-.59.65-.85.9.41.18.85.47,1.31.87.46.4.89.88,1.29,1.46.4.57.73,1.24.98,2,.26.76.38,1.58.38,2.48,0,1.38-.25,2.6-.75,3.64-.5,1.04-1.19,1.91-2.07,2.61-.89.71-1.93,1.24-3.13,1.6-1.2.36-2.5.54-3.89.54H0v-28.85h16.46ZM16.46,60.24c1.43,0,2.51-.38,3.23-1.14.72-.76,1.08-1.79,1.08-3.1,0-1.15-.35-2.06-1.06-2.71-.71-.65-1.79-.98-3.25-.98H4.15v7.93h12.31ZM16.46,72.85c1.95,0,3.39-.36,4.31-1.08.92-.71,1.38-1.77,1.38-3.15,0-.64-.09-1.22-.27-1.75-.18-.52-.49-.97-.94-1.33-.45-.36-1.04-.64-1.77-.85-.73-.2-1.63-.31-2.71-.31H4.15v8.46h12.31Z"/>
      <polygon class="cls-1" points="58.19 48.16 58.19 52.31 38.73 52.31 38.73 59.89 48.54 59.89 48.54 64.04 38.73 64.04 38.73 72.85 58.92 72.85 58.92 77.01 34.58 77.01 34.58 48.16 58.19 48.16"/>
      <path class="cls-1" d="M93.39,77.01h-4.69l-4.12-9.5h-12.89l-4.27,9.5h-4.54l13.04-28.85h4.62l12.85,28.85ZM78.16,53.31l-4.54,10.04h9.08l-4.54-10.04Z"/>
      <path class="cls-1" d="M126.81,71.85c-.69.74-1.44,1.46-2.25,2.15-.81.69-1.77,1.31-2.88,1.85-1.11.54-2.42.97-3.92,1.29-1.5.32-3.29.48-5.37.48-1.95,0-3.84-.36-5.67-1.08-1.83-.72-3.45-1.72-4.86-3.02-1.41-1.3-2.54-2.85-3.39-4.67-.84-1.82-1.27-3.83-1.27-6.04s.38-4.12,1.15-5.98c.77-1.86,1.83-3.47,3.19-4.85,1.36-1.37,2.96-2.46,4.81-3.25,1.84-.79,3.83-1.19,5.96-1.19,1.98,0,3.75.25,5.33.73,1.58.49,2.96,1.06,4.14,1.71,1.18.65,2.15,1.31,2.9,1.96.76.66,1.31,1.15,1.67,1.48l-3.12,2.65c-.33-.26-.81-.63-1.42-1.14-.61-.5-1.38-.99-2.29-1.46-.91-.47-1.96-.89-3.15-1.25-1.2-.36-2.53-.54-4.02-.54-1.36,0-2.7.25-4,.73-1.31.49-2.48,1.2-3.52,2.13-1.04.93-1.88,2.1-2.53,3.48-.64,1.38-.96,2.97-.96,4.77,0,1.28.25,2.56.77,3.83.51,1.27,1.28,2.41,2.29,3.42,1.01,1.01,2.27,1.83,3.77,2.46,1.5.63,3.24.95,5.21.95,1.54,0,2.89-.17,4.08-.52,1.18-.35,2.21-.76,3.07-1.23.88-.48,1.6-.97,2.17-1.5.58-.53,1.02-.98,1.33-1.37l2.77,3Z"/>
      <polygon class="cls-1" points="135.28 48.16 139.43 48.16 139.43 59.81 156.35 59.81 156.35 48.16 160.51 48.16 160.51 77.01 156.35 77.01 156.35 63.97 139.43 63.97 139.43 77.01 135.28 77.01 135.28 48.16"/>
      <path class="cls-1" d="M202.81,48.16c1.08,0,2.12.16,3.13.48,1.01.32,1.91.82,2.69,1.48.78.67,1.4,1.5,1.86,2.5.46,1,.69,2.18.69,3.54,0,1.54-.23,2.85-.69,3.92-.46,1.08-1.08,1.96-1.84,2.64-.77.68-1.66,1.17-2.67,1.48-1.01.31-2.07.46-3.18.46h-12.5v12.35h-4.15v-28.85h16.65ZM190.31,52.31v8.19h12.5c.97,0,1.74-.14,2.31-.42.56-.28.99-.63,1.27-1.06.28-.42.46-.89.54-1.38.08-.5.12-.98.12-1.44,0-1.1-.35-2.03-1.06-2.77-.71-.74-1.76-1.11-3.18-1.11h-12.5Z"/>
      <path class="cls-1" d="M244.82,77.01h-4.69l-4.12-9.5h-12.89l-4.27,9.5h-4.54l13.04-28.85h4.62l12.85,28.85ZM229.59,53.31l-4.54,10.04h9.08l-4.54-10.04Z"/>
      <polygon class="cls-1" points="251.4 48.16 255.55 48.16 255.55 72.85 273.05 72.85 273.05 77.01 251.4 77.01 251.4 48.16"/>
      <path class="cls-1" d="M304.97,77.01h-4.69l-4.12-9.5h-12.89l-4.27,9.5h-4.54l13.04-28.85h4.62l12.85,28.85ZM289.74,53.31l-4.54,10.04h9.08l-4.54-10.04Z"/>
      <path class="cls-1" d="M338.4,71.85c-.69.74-1.44,1.46-2.25,2.15-.81.69-1.77,1.31-2.88,1.85-1.11.54-2.42.97-3.92,1.29-1.5.32-3.28.48-5.37.48-1.95,0-3.84-.36-5.67-1.08-1.83-.72-3.45-1.72-4.87-3.02-1.41-1.3-2.53-2.85-3.38-4.67-.84-1.82-1.27-3.83-1.27-6.04s.38-4.12,1.15-5.98c.77-1.86,1.83-3.47,3.19-4.85,1.36-1.37,2.96-2.46,4.81-3.25,1.84-.79,3.83-1.19,5.96-1.19,1.98,0,3.75.25,5.33.73,1.58.49,2.96,1.06,4.14,1.71,1.18.65,2.15,1.31,2.9,1.96.76.66,1.31,1.15,1.67,1.48l-3.12,2.65c-.33-.26-.81-.63-1.42-1.14-.61-.5-1.38-.99-2.29-1.46-.91-.47-1.96-.89-3.15-1.25-1.2-.36-2.53-.54-4.02-.54-1.36,0-2.7.25-4,.73-1.31.49-2.48,1.2-3.52,2.13-1.04.93-1.88,2.1-2.53,3.48-.64,1.38-.96,2.97-.96,4.77,0,1.28.25,2.56.77,3.83.51,1.27,1.28,2.41,2.29,3.42,1.01,1.01,2.27,1.83,3.77,2.46,1.5.63,3.24.95,5.21.95,1.54,0,2.89-.17,4.08-.52,1.18-.35,2.21-.76,3.07-1.23.88-.48,1.6-.97,2.17-1.5.58-.53,1.02-.98,1.33-1.37l2.77,3Z"/>
      <polygon class="cls-1" points="369.63 48.16 369.63 52.31 350.17 52.31 350.17 59.89 359.98 59.89 359.98 64.04 350.17 64.04 350.17 72.85 370.36 72.85 370.36 77.01 346.01 77.01 346.01 48.16 369.63 48.16"/>
      <g>
        <path class="cls-1" d="M65.49,98.26v3.54h5.23v1.9h-5.23v5.47h-1.85v-12.76h10.45v1.85h-8.6Z"/>
        <path class="cls-1" d="M87.04,109.17l-1.83-4.16h-5.73l-1.9,4.16h-2.02l5.8-12.74h2.05l5.71,12.74h-2.09ZM82.35,98.69l-2.02,4.45h4.04l-2.02-4.45Z"/>
        <path class="cls-1" d="M102.84,109.17v-8.93l-4.53,7.88-4.41-7.88v8.93h-1.81v-12.76h1.83l4.4,7.95,4.55-7.95h1.85v12.76h-1.86Z"/>
        <path class="cls-1" d="M109.7,109.17v-12.76h1.83v12.76h-1.83Z"/>
        <path class="cls-1" d="M116.57,109.17v-12.76h1.86v10.89h7.76v1.86h-9.63Z"/>
        <path class="cls-1" d="M134.01,103.65v5.52h-1.85v-5.52l-5.18-7.23h2.24l3.9,5.4,3.85-5.4h2.31l-5.27,7.23Z"/>
        <path class="cls-1" d="M157.03,103.82l2.65,5.35h-2.1l-2.57-5.28h-4.75v5.28h-1.86v-12.76h7.56c2.33,0,4.02,1.33,4.02,3.76,0,1.93-1.09,3.2-2.94,3.64ZM155.96,98.26h-5.69v3.76h5.69c1.27,0,2.17-.6,2.17-1.95s-.96-1.81-2.17-1.81Z"/>
        <path class="cls-1" d="M163.67,109.17v-12.76h10.5v1.88h-8.64v3.33h4.34v1.85h-4.34v3.83h8.96v1.86h-10.83Z"/>
        <path class="cls-1" d="M182.82,109.46c-2.6,0-4.55-.75-6.38-2.62l1.3-1.25c1.64,1.52,3.11,1.98,5.34,1.98,1.42,0,3.95-.44,3.95-2.29,0-.63-.32-1.11-.86-1.45-.67-.43-1.3-.46-3.18-.5l-1.92-.03c-1.98-.03-3.8-1.08-3.8-3.27,0-1.86,1.56-3.11,3.18-3.64.72-.22,1.47-.32,2.21-.32,1.92,0,3.76.58,5.3,1.74l-1.04,1.49c-1.39-.85-2.36-1.33-4.02-1.33-1.25,0-3.75.39-3.75,2.05,0,1.25,1.15,1.47,2.15,1.47h1.9c1.42,0,2.58.02,3.85.77,1.15.68,1.8,1.85,1.8,3.18,0,3.1-3.54,4.02-6.04,4.02Z"/>
        <path class="cls-1" d="M198.43,109.48c-3.86,0-6.86-3.03-6.86-6.87s3.22-6.57,6.87-6.57,6.86,2.96,6.86,6.77-3.18,6.67-6.87,6.67ZM198.43,97.92c-2.84,0-5.03,2.04-5.03,4.91s2.38,4.77,5.04,4.77,5.01-2.12,5.01-4.89-2.31-4.79-5.03-4.79Z"/>
        <path class="cls-1" d="M218.15,103.82l2.65,5.35h-2.1l-2.57-5.28h-4.75v5.28h-1.86v-12.76h7.56c2.33,0,4.02,1.33,4.02,3.76,0,1.93-1.09,3.2-2.94,3.64ZM217.07,98.26h-5.69v3.76h5.69c1.27,0,2.17-.6,2.17-1.95s-.96-1.81-2.17-1.81Z"/>
        <path class="cls-1" d="M229.59,98.28v10.89h-1.81v-10.89h-4.55v-1.86h10.86v1.86h-4.5Z"/>
        <path class="cls-1" d="M252.73,109.17l-.8-.87c-1.42.82-2.21,1.13-3.88,1.13-2.15,0-4.91-1.18-4.91-3.68,0-2,1.86-3.11,3.35-3.3-.38-.38-.94-1.21-.94-2.26,0-1.56,1.23-2.62,3.47-2.62,1.49,0,2.92.53,3.63.97l-.82,1.62c-.58-.34-1.8-.91-2.75-.91-1.01,0-1.5.41-1.5.91,0,.62.44,1.08.72,1.37l3.83,4.17c.56-.6,1.03-1.28,1.49-1.95l1.54,1.01c-.5.86-1.09,1.62-1.76,2.34l1.86,2.05h-2.51ZM247.8,103.87c-.97.27-2.77.62-2.77,1.95,0,1.27,1.95,1.69,2.92,1.69,1.11,0,1.66-.17,2.65-.67l-2.8-2.98Z"/>
        <path class="cls-1" d="M269.88,109.46c-2.6,0-4.55-.75-6.38-2.62l1.3-1.25c1.64,1.52,3.11,1.98,5.34,1.98,1.42,0,3.95-.44,3.95-2.29,0-.63-.32-1.11-.86-1.45-.67-.43-1.3-.46-3.18-.5l-1.92-.03c-1.98-.03-3.8-1.08-3.8-3.27,0-1.86,1.56-3.11,3.18-3.64.72-.22,1.47-.32,2.21-.32,1.92,0,3.76.58,5.3,1.74l-1.04,1.49c-1.39-.85-2.36-1.33-4.02-1.33-1.25,0-3.75.39-3.75,2.05,0,1.25,1.15,1.47,2.15,1.47h1.9c1.42,0,2.58.02,3.85.77,1.15.68,1.8,1.85,1.8,3.18,0,3.1-3.54,4.02-6.04,4.02Z"/>
        <path class="cls-1" d="M286.98,103.75h-5.54v5.42h-1.86v-12.76h7.4c2.26,0,3.73,1.35,3.73,3.64s-1.49,3.69-3.73,3.69ZM286.98,98.28h-5.54v3.59h5.54c1.2,0,1.88-.58,1.88-1.81s-.65-1.78-1.88-1.78Z"/>
        <path class="cls-1" d="M303.6,109.17l-1.83-4.16h-5.73l-1.9,4.16h-2.02l5.8-12.74h2.05l5.71,12.74h-2.09ZM298.92,98.69l-2.02,4.45h4.04l-2.02-4.45Z"/>
      </g>
    </g>
  </g>
</svg>